<svg width="221" height="38" viewBox="0 0 221 38" fill="none" xmlns="http://www.w3.org/2000/svg">
<path d="M25.8691 18.0811L14.4587 36.6368L11.6892 34.936C12.3594 33.3792 11.8095 31.5213 10.3151 30.6076C9.69124 30.2248 8.99293 30.0595 8.30799 30.0999C8.25697 30.1018 8.20562 30.1052 8.15444 30.11L6.12921 28.0698L20.6744 13.6352L21.3407 14.0475L21.3421 14.0484L23.3207 15.2639L23.3208 15.264L26.4266 17.1727L25.8693 18.0807L25.8691 18.0811Z" stroke="#12101C"/>
<g style="mix-blend-mode:multiply" opacity="0.3">
<path d="M23.5823 14.8379L14.623 37.3241L14.605 37.313L11.0325 35.119C11.8881 33.7217 11.4564 31.8908 10.0541 31.0336C9.51688 30.7039 8.9182 30.5634 8.33226 30.599C8.21265 30.6033 8.09011 30.6173 7.97573 30.6392L5.42218 28.0668L20.6023 13.0024L21.6039 13.6223L23.5823 14.8379Z" fill="#12101C"/>
</g>
<path d="M0.629677 32.271L8.18814 8.95648L11.5572 10.0486C11.2362 11.8302 12.2732 13.6198 14.0427 14.1938L14.0429 14.1938C15.8128 14.7675 17.7024 13.9262 18.4878 12.2955L21.8569 13.3874L14.2984 36.7023L10.9294 35.6101C11.2504 33.8286 10.2134 32.039 8.44386 31.465L8.44373 31.4649C6.67377 30.8913 4.78419 31.7324 3.99874 33.3632L0.629677 32.271Z" stroke="#12101C"/>
<path d="M12.2268 35.4809L11.4981 35.2447C11.5154 34.9872 11.5088 34.7313 11.4794 34.48" stroke="white" stroke-width="0.255213" stroke-miterlimit="10"/>
<path d="M11.1047 33.1668C10.627 32.1561 9.7502 31.3365 8.60512 30.9653C7.22638 30.5183 5.78099 30.8258 4.71793 31.6587" stroke="white" stroke-width="0.255213" stroke-miterlimit="10"/>
<path d="M4.21632 32.1235C4.04508 32.3101 3.88953 32.5134 3.7526 32.732L3.02386 32.4957" stroke="white" stroke-width="0.255213" stroke-miterlimit="10"/>
<path d="M2.01551 32.1676L1.28677 31.9314L1.52304 31.2026" stroke="white" stroke-width="0.255213" stroke-miterlimit="10"/>
<path d="M1.97485 29.8159L8.06298 11.0366" stroke="white" stroke-width="0.255213" stroke-miterlimit="10"/>
<path d="M8.28763 10.3392L8.5239 9.61084L9.25232 9.84678" stroke="white" stroke-width="0.255213" stroke-miterlimit="10"/>
<path d="M10.2591 10.1733L10.9878 10.4095C10.9705 10.667 10.9771 10.9229 11.0065 11.1742" stroke="white" stroke-width="0.255213" stroke-miterlimit="10"/>
<path d="M11.3811 12.4868C11.8589 13.4976 12.7357 14.3171 13.8808 14.6883C15.2595 15.1354 16.7049 14.8279 17.7679 13.9949" stroke="white" stroke-width="0.255213" stroke-miterlimit="10"/>
<path d="M18.2724 13.5289C18.4436 13.3423 18.5992 13.139 18.7361 12.9204L19.4648 13.1567" stroke="white" stroke-width="0.255213" stroke-miterlimit="10"/>
<path d="M20.4716 13.4819L21.2003 13.7182L20.964 14.4469" stroke="white" stroke-width="0.255213" stroke-miterlimit="10"/>
<path d="M20.5135 15.8413L14.4254 34.6206" stroke="white" stroke-width="0.255213" stroke-miterlimit="10"/>
<path d="M14.1987 35.3179L13.9628 36.0463L13.234 35.81" stroke="white" stroke-width="0.255213" stroke-miterlimit="10"/>
<path d="M60.6134 11.4662V37.0569H52.7711V33.5714C51.9762 34.7026 50.8908 35.6199 49.5149 36.3231C48.1697 36.9957 46.6715 37.332 45.0205 37.332C43.0638 37.332 41.3363 36.904 39.8382 36.0479C38.34 35.1613 37.1782 33.8924 36.3527 32.2414C35.5272 30.5904 35.1145 28.6489 35.1145 26.417V11.4662H42.9109V25.3622C42.9109 27.0744 43.3542 28.4044 44.2409 29.3522C45.1275 30.3 46.3199 30.7739 47.8181 30.7739C49.3468 30.7739 50.5545 30.3 51.4411 29.3522C52.3278 28.4044 52.7711 27.0744 52.7711 25.3622V11.4662H60.6134Z" fill="#12101C"/>
<path d="M81.302 11.4662C84.2982 11.4662 86.683 12.4446 88.4563 14.4013C90.2602 16.3275 91.1622 18.9875 91.1622 22.3812V37.332H83.3657V23.436C83.3657 21.7239 82.9224 20.3939 82.0357 19.4461C81.1491 18.4983 79.9567 18.0244 78.4585 18.0244C76.9604 18.0244 75.768 18.4983 74.8814 19.4461C73.9947 20.3939 73.5514 21.7239 73.5514 23.436V37.332H65.7091V11.7414H73.5514V15.1351C74.3463 14.0039 75.4164 13.1172 76.7617 12.4752C78.1069 11.8025 79.6204 11.4662 81.302 11.4662Z" fill="#12101C"/>
<path d="M96.2579 4.45874C96.2579 1.99625 98.2541 0 100.716 0H100.98C103.442 0 105.439 1.99625 105.439 4.45874C105.439 6.92124 103.442 8.91749 100.98 8.91749H100.716C98.2541 8.91749 96.2579 6.92124 96.2579 4.45874Z" fill="#12101C"/>
<path d="M96.2579 11.4653H105.439V37.332H96.2579V11.4653Z" fill="#12101C"/>
<path d="M124.476 29.9943L130.025 11.7415H138.372L129.292 37.3321H119.615L110.534 11.7415H118.927L124.476 29.9943Z" fill="#12101C"/>
<path d="M169.15 23.7571C169.15 24.4908 169.104 25.2552 169.013 26.0501H151.264C151.387 27.64 151.891 28.863 152.778 29.719C153.695 30.5445 154.811 30.9573 156.126 30.9573C158.082 30.9573 159.443 30.1318 160.207 28.4808H168.554C168.126 30.1624 167.346 31.6758 166.215 33.0211C165.115 34.3663 163.723 35.4211 162.042 36.1855C160.36 36.9499 158.48 37.332 156.401 37.332C153.894 37.332 151.662 36.797 149.705 35.7269C147.748 34.6568 146.22 33.1281 145.119 31.1407C144.018 29.1534 143.468 26.8298 143.468 24.1698C143.468 21.5099 144.003 19.1862 145.073 17.1989C146.174 15.2116 147.703 13.6829 149.659 12.6128C151.616 11.5427 153.863 11.0076 156.401 11.0076C158.877 11.0076 161.079 11.5274 163.005 12.5669C164.931 13.6064 166.429 15.0893 167.499 17.0154C168.6 18.9416 169.15 21.1888 169.15 23.7571ZM161.125 21.6933C161.125 20.348 160.666 19.2779 159.749 18.483C158.832 17.6881 157.685 17.2906 156.309 17.2906C154.994 17.2906 153.878 17.6728 152.961 18.4371C152.075 19.2015 151.524 20.2869 151.31 21.6933H161.125Z" fill="#12101C"/>
<path d="M189.839 11.4662C192.835 11.4662 195.22 12.4446 196.993 14.4013C198.797 16.3275 199.699 18.9875 199.699 22.3812V37.332H191.903V23.436C191.903 21.7239 191.459 20.3939 190.573 19.4461C189.686 18.4983 188.494 18.0244 186.996 18.0244C185.497 18.0244 184.305 18.4983 183.418 19.4461C182.532 20.3939 182.088 21.7239 182.088 23.436V37.332H174.246V11.7414H182.088V15.1351C182.883 14.0039 183.953 13.1172 185.299 12.4752C186.644 11.8025 188.157 11.4662 189.839 11.4662Z" fill="#12101C"/>
<path d="M220.938 30.6821V37.332H216.948C214.105 37.332 211.888 36.6441 210.298 35.2683C208.708 33.8619 207.913 31.5841 207.913 28.4349V18.2537H204.795V11.7414H207.913V5.50427H215.756V11.7414H220.892V18.2537H215.756V28.5266C215.756 29.291 215.939 29.8413 216.306 30.1777C216.673 30.514 217.284 30.6821 218.14 30.6821H220.938Z" fill="#12101C"/>
</svg>
